<?xml version="1.0"?>
<svg xmlns="http://www.w3.org/2000/svg" xmlns:xlink="http://www.w3.org/1999/xlink" xmlns:svgjs="http://svgjs.com/svgjs" version="1.1" width="512" height="512" x="0" y="0" viewBox="0 0 510 510" style="enable-background:new 0 0 512 512" xml:space="preserve" class=""><g transform="matrix(1,0,0,1,5.400124791776761e-13,4.263256414560601e-13)"><path xmlns="http://www.w3.org/2000/svg" d="m176.219 145.05h-32.497c-7.82 0-14.183-6.37-14.183-14.199 0-7.856 6.353-14.199 14.181-14.199.073 0 .145.001.218.001h31.119c5.588.056 11.114 2.566 15.167 6.894 5.664 6.046 15.156 6.354 21.202.692 6.046-5.664 6.356-15.156.692-21.202-9.658-10.31-23.102-16.281-36.886-16.384-.038 0-.075 0-.112 0h-.149v-13.329c0-8.284-6.716-15-15-15s-15 6.716-15 15v13.328c-27.225 0-45.431 20.887-45.431 44.198 0 24.371 19.82 44.199 44.183 44.199h32.497c7.82 0 14.183 6.369 14.183 14.198 0 7.857-6.353 14.199-14.18 14.199-.073 0-.146-.001-.218-.001h-33.953c-3.947-.04-8.138-1.464-11.807-4.011-6.806-4.727-16.152-3.039-20.876 3.768-4.724 6.805-3.038 16.151 3.768 20.875 10.804 7.501 20.535 9.368 31.835 9.368v13.328c0 8.284 6.716 15 15 15s15-6.716 15-15v-13.328c27.421 0 45.431-21.068 45.431-44.198-.001-24.37-19.821-44.197-44.184-44.197z" fill="#ffffff" data-original="#000000" style="" class=""/><path xmlns="http://www.w3.org/2000/svg" d="m316.451 193.46c21.243-100.039-55.391-193.46-156.479-193.46-88.209 0-159.972 71.799-159.972 160.051 0 101.143 93.452 177.94 193.57 156.51-21.23 99.684 55.077 193.439 156.459 193.439 88.208 0 159.971-71.798 159.971-160.05 0-101.115-93.443-177.97-193.549-156.49zm-286.451-33.409c0-71.71 58.305-130.051 129.972-130.051 90.227 0 153.322 90.391 121.941 175.158-33.625 15.897-60.856 43.178-76.7 76.845-84.689 31.523-175.213-31.532-175.213-121.952zm320.029 319.949c-71.666 0-129.971-58.34-129.971-130.05 0-71.709 58.305-130.049 129.971-130.049s129.971 58.34 129.971 130.049c0 71.71-58.305 130.05-129.971 130.05z" fill="#ffffff" data-original="#000000" style="" class=""/><path xmlns="http://www.w3.org/2000/svg" d="m401.215 402.546c-20.94-6.647-42.824-8.759-64.391-6.311 3.04-9.325 5.181-18.895 6.414-28.609h17.975c8.284 0 15-6.716 15-15s-6.716-15-15-15h-17.077c-.31-4.743-.501-6.096-1.771-17.683-2.103-19.203 21.732-29.472 34.351-15.241 5.495 6.198 14.976 6.771 21.175 1.272 6.198-5.495 6.769-14.976 1.272-21.175-31.834-35.908-91.917-9.873-86.618 38.414 1.353 12.345 1.252 11.238 1.507 14.412h-10.669c-8.284 0-15 6.716-15 15s6.716 15 15 15h9.546c-2.308 14.6-7.175 28.746-14.513 41.915-6.48 11.629 4.35 25.355 17.168 21.74 25.4-7.15 49.085-8.864 76.555-.142 7.883 2.504 16.326-1.851 18.836-9.758 2.504-7.895-1.865-16.327-9.76-18.834z" fill="#ffffff" data-original="#000000" style="" class=""/><path xmlns="http://www.w3.org/2000/svg" d="m372.499 47.172c29.393 0 60.632 22.195 60.632 63.328v14.124l-13.509-13.516c-5.855-5.86-15.354-5.86-21.213-.006-5.859 5.856-5.862 15.354-.006 21.213l39.118 39.14c5.802 5.81 15.329 5.895 21.218 0l39.119-39.14c5.856-5.859 5.854-15.356-.006-21.213-5.859-5.857-15.357-5.854-21.213.006l-13.51 13.517v-14.125c0-54.571-41.457-93.328-90.632-93.328-8.284 0-15 6.716-15 15s6.718 15 15.002 15z" fill="#ffffff" data-original="#000000" style="" class=""/><path xmlns="http://www.w3.org/2000/svg" d="m137.501 462.828c-29.393 0-60.632-22.195-60.632-63.328v-14.125l13.51 13.517c5.855 5.858 15.351 5.864 21.213.006 5.86-5.856 5.862-15.354.006-21.213l-39.119-39.141c-5.803-5.815-15.349-5.882-21.218 0l-39.121 39.142c-5.856 5.859-5.854 15.356.006 21.213 5.858 5.856 15.356 5.854 21.213-.006l13.51-13.517v14.124c0 54.572 41.457 93.328 90.632 93.328 8.284 0 15-6.716 15-15s-6.716-15-15-15z" fill="#ffffff" data-original="#000000" style="" class=""/></g></svg>
