<svg id="Capa_1" enable-background="new 0 0 512 512" height="512" viewBox="0 0 512 512" width="512" xmlns="http://www.w3.org/2000/svg"><g><g><path d="m218.585 283.935c-17.99-19.063-48.312-19.063-66.303 0-3.903 4.136-5.156 10.112-3.242 15.467l2.894 8.098c6.955 19.463 10.511 39.978 10.511 60.646 0 4.73 6.05 6.7 8.835 2.877 6.994-9.599 21.313-9.599 28.307 0 2.785 3.823 8.835 1.853 8.835-2.877 0-20.669 3.555-41.183 10.511-60.646l2.894-8.098c1.914-5.355.661-11.331-3.242-15.467z" fill="#ffe5de"/></g><g><g><path d="m218.585 283.935c-11.668-12.365-28.523-16.699-43.838-13.024 8.297 1.991 16.143 6.326 22.465 13.024 3.903 4.136 5.156 10.112 3.242 15.467l-2.894 8.098c-6.481 18.135-10.006 37.183-10.458 56.418 4.753.45 9.353 2.808 12.484 7.105 2.785 3.823 8.835 1.853 8.835-2.877 0-20.668 3.555-41.183 10.511-60.646l2.894-8.098c1.915-5.355.662-11.331-3.241-15.467z" fill="#fbac90"/></g></g><g><path d="m178.975 31.626-9.241-19.073c-2.065-4.262-7.97-4.691-10.628-.771l-11.892 17.532c-4.143 6.108-9.246 11.474-14.907 16.209-8.925 7.466-14.799 18.553-15.238 31.217-.765 22.077 15.871 41.321 37.827 43.756 24.146 2.677 45.468-15.233 47.21-39.241.881-12.144-3.425-23.461-11.036-31.792-4.871-5.333-8.947-11.339-12.095-17.837z" fill="#fbac90"/></g><g><path d="m191.069 49.462c-4.87-5.332-8.945-11.338-12.094-17.836l-9.241-19.073c-2.065-4.262-7.97-4.691-10.628-.771l-11.003 16.221 1.756 3.623c3.149 6.499 7.224 12.505 12.094 17.836 7.611 8.332 11.917 19.649 11.036 31.792-1.252 17.26-12.626 31.369-27.893 36.941 3.108 1.137 6.39 1.922 9.8 2.3 24.146 2.677 45.468-15.233 47.21-39.241.88-12.143-3.427-23.46-11.037-31.792z" fill="#f48156"/></g><g><path d="m159.98 338.493c1.632 9.783 2.465 19.7 2.465 29.654 0 4.73 6.05 6.7 8.835 2.877 6.994-9.599 21.313-9.599 28.307 0 2.785 3.823 8.835 1.853 8.835-2.877 0-9.954.833-19.872 2.465-29.654z" fill="#fbac90"/></g><g><path d="m359.351 82.169-29.115 29.115c-1.869 1.869-2.918 4.403-2.918 7.045v42.856c0 2.463-1.997 4.46-4.46 4.46h-38.002c-1.477 0-2.859.732-3.689 1.953l-14.896 21.921c-.83 1.222-2.212 1.953-3.689 1.953h-40.878c-2.663 0-3.997-3.22-2.114-5.103l64.301-64.301c1.869-1.869 2.918-4.403 2.918-7.045v-72.404c0-2.355-1.651-4.374-3.951-4.878-12.929-2.833-26.461-4.343-40.398-4.343-63.193 0-129.519 8.388-156.647 66.395-3.301 7.059-5.37 15.234-6.66 23.898-.935 6.278-6.389 10.89-12.735 10.89h-14.306c-9.26 0-16.767 7.507-16.767 16.767v72.503c0 9.26 7.507 16.767 16.767 16.767h34.285c4.427 0 8.549 2.268 10.9 6.019 28.059 44.761 82.543 75.123 145.164 75.123 91.311 0 165.334-64.552 165.334-144.181 0-36.604-15.647-70.017-41.42-95.443-1.949-1.921-5.09-1.901-7.024.033z" fill="#ffe5de"/></g><g><path d="m359.342 82.178-3.509 3.509c6.686 15.659 10.356 32.598 10.356 50.288 0 79.629-74.023 144.181-165.334 144.181-38.283 0-73.522-11.351-101.545-30.398 28.602 43.046 81.996 72.003 143.15 72.003 91.311 0 165.334-64.552 165.334-144.181 0-36.604-15.655-70.01-41.429-95.435-1.948-1.922-5.089-1.901-7.023.033z" fill="#fbac90"/></g><g><path d="m234.457 30.018-9.241-19.073c-2.065-4.262-7.97-4.691-10.628-.771l-11.892 17.532c-4.143 6.108-9.246 11.474-14.907 16.209-8.925 7.466-14.799 18.553-15.238 31.217-.765 22.077 15.871 41.321 37.827 43.756 24.146 2.677 45.468-15.233 47.21-39.241.881-12.144-3.425-23.461-11.036-31.792-4.871-5.332-8.946-11.339-12.095-17.837z" fill="#fbac90"/></g><g><path d="m246.551 47.854c-4.87-5.332-8.945-11.338-12.094-17.836l-9.241-19.073c-2.065-4.262-7.97-4.691-10.628-.771l-11.892 17.532c-.341.502-.698.992-1.052 1.484l.401.828c3.149 6.499 7.224 12.505 12.094 17.836 7.611 8.332 11.917 19.649 11.036 31.792-1.207 16.633-11.816 30.333-26.247 36.294 3.589 1.487 7.429 2.502 11.449 2.947 24.146 2.677 45.469-15.233 47.21-39.241.881-12.143-3.425-23.46-11.036-31.792z" fill="#f48156"/></g><g><path d="m65.45 134.581h-13.339c-9.26 0-16.767 7.507-16.767 16.767v72.503c0 9.26 7.507 16.767 16.767 16.767h13.339z" fill="#fbac90"/></g><g><path d="m53.759 134.581v78.976c0 7.367-5.972 13.338-13.338 13.338-1.705 0-3.349-.258-4.899-.731 1.129 8.163 8.116 14.454 16.589 14.454h13.338v-106.037z" fill="#f48156"/></g><g><circle cx="151.82" cy="203.61" fill="#fbac90" r="26.031"/></g><g><path d="m367.215 440.191-4.181-4.181c-2.387-2.387-3.728-5.625-3.728-9.001v-35.106h-40.953v35.106c0 3.376-1.341 6.614-3.728 9.001l-4.181 4.181c-6.126 6.126-6.126 16.057 0 22.183l4.181 4.181c2.387 2.387 3.728 5.625 3.728 9.001v8.002c0 11.103 8.634 20.56 19.73 20.954 11.649.414 21.223-8.907 21.223-20.463v-8.493c0-3.376 1.341-6.614 3.728-9.001l4.181-4.181c6.125-6.126 6.125-16.057 0-22.183z" fill="#057096"/></g><g><path d="m367.215 440.191-4.181-4.181c-2.387-2.387-3.729-5.625-3.729-9.001v-35.106h-18.682v35.106c0 3.376 1.341 6.614 3.729 9.001l4.181 4.181c6.126 6.126 6.126 16.057 0 22.183l-4.181 4.181c-2.387 2.387-3.729 5.625-3.729 9.001v8.493c0 7.912-4.489 14.775-11.058 18.184 2.566 1.344 5.44 2.17 8.516 2.279 11.649.414 21.223-8.907 21.223-20.463v-8.493c0-3.376 1.341-6.614 3.729-9.001l4.181-4.181c6.126-6.126 6.126-16.057.001-22.183z" fill="#055e7f"/></g><g><circle cx="338.828" cy="308.004" fill="#b4d9fc" r="86.05"/></g><g><path d="m372.674 228.875c4.45 10.39 6.921 21.828 6.921 33.846 0 47.524-38.526 86.05-86.05 86.05-12.018 0-23.456-2.471-33.846-6.921 13.147 30.695 43.623 52.204 79.129 52.204 47.524 0 86.05-38.526 86.05-86.05 0-35.506-21.509-65.982-52.204-79.129z" fill="#8ac7fd"/></g><g><g><path d="m338.828 408.999c-55.689 0-100.995-45.306-100.995-100.996 0-55.688 45.306-100.995 100.995-100.995s100.996 45.306 100.996 100.995c0 55.69-45.307 100.996-100.996 100.996zm0-172.099c-39.207 0-71.104 31.897-71.104 71.104s31.897 71.105 71.104 71.105 71.105-31.897 71.105-71.105c0-39.207-31.897-71.104-71.105-71.104z" fill="#055e7f"/></g></g><g><g><path d="m402.104 229.351c13.966 17.326 22.341 39.339 22.341 63.274 0 55.689-45.306 100.996-100.996 100.996-23.935 0-45.948-8.375-63.275-22.342 18.528 22.986 46.9 37.72 78.654 37.72 55.689 0 100.996-45.306 100.996-100.996 0-31.752-14.735-60.124-37.72-78.652z" fill="#004c67"/></g></g><g><g><path d="m189.515 338.493c-1.401 8.397-2.212 16.893-2.412 25.426 4.753.45 9.353 2.808 12.484 7.105 2.785 3.823 8.835 1.853 8.835-2.877 0-9.954.833-19.872 2.465-29.654z" fill="#f48156"/></g></g><g><path d="m483.866 181.299c-1.08-3.983-5.186-6.337-9.168-5.257-1.144.31-2.335.468-3.54.468-5.312 0-10.306-2.068-14.061-5.824l-4.345-4.346c5.743-5.674 12.725-14.224 12.725-22.26 0-13.001-10.577-23.578-23.578-23.578s-23.578 10.577-23.578 23.578c0 8.019 6.954 16.551 12.69 22.225l-4.38 4.38c-3.115 3.115-7.087 5.047-11.38 5.624-.349-36.755-15.804-72.043-43.628-99.493-4.854-4.789-12.729-4.758-17.555.069l-29.115 29.115c-3.293 3.293-5.107 7.672-5.107 12.33v39.844h-34.99c-3.957 0-7.646 1.954-9.87 5.226l-14 20.602h-28.459l56.649-56.648c3.293-3.294 5.106-7.672 5.106-12.329v-72.406c0-5.902-4.04-10.91-9.824-12.177-14.209-3.116-28.945-4.631-43.676-4.51l-8.839-18.245c-2.148-4.433-6.363-7.292-11.276-7.648-4.913-.358-9.497 1.865-12.262 5.941l-11.894 17.53c-1.113 1.641-2.344 3.256-3.664 4.847-2.278.26-6.717.849-6.717.849l-9.671-19.913c-2.148-4.433-6.363-7.292-11.276-7.648-4.909-.36-9.496 1.864-12.261 5.941l-11.893 17.532c-3.5 5.161-8.048 10.097-13.518 14.673-4.536 3.795-8.328 8.307-11.271 13.41-16.338 10.98-28.83 25.536-37.197 43.427-3.372 7.212-5.754 15.704-7.282 25.962-.384 2.576-2.682 4.518-5.345 4.518h-14.305c-13.366 0-24.24 10.874-24.24 24.24v72.503c0 13.366 10.874 24.24 24.24 24.24h34.285c1.873 0 3.581.94 4.568 2.516 12.414 19.803 29.798 36.969 50.667 50.149.116.39.236.78.373 1.162l2.894 8.098c6.685 18.708 10.075 38.266 10.075 58.132 0 5.367 3.428 10.089 8.531 11.752 5.106 1.66 10.655-.135 13.817-4.473 1.911-2.623 4.868-4.128 8.113-4.128s6.202 1.504 8.114 4.128c2.376 3.26 6.102 5.084 9.973 5.084 1.28 0 2.575-.199 3.842-.612 5.103-1.662 8.531-6.385 8.531-11.752 0-9.499.787-18.979 2.342-28.335.657-3.952 1.46-7.879 2.391-11.779 3.903.432 7.83.742 11.773.94 7.998 40.666 38.793 73.249 78.477 83.841v14.194c0 1.404-.547 2.724-1.54 3.717l-4.181 4.181c-4.374 4.374-6.783 10.189-6.783 16.375s2.409 12.002 6.783 16.376l4.181 4.181c.993.993 1.54 2.313 1.54 3.717v8.002c0 15.144 12.084 27.894 26.937 28.422 7.612.28 14.923-2.502 20.42-7.819 5.509-5.316 8.542-12.459 8.542-20.113v-8.493c0-1.404.547-2.724 1.54-3.717l4.182-4.182c4.374-4.374 6.783-10.189 6.783-16.376 0-6.186-2.409-12.001-6.783-16.376l-4.182-4.181c-.993-.993-1.54-2.313-1.54-3.717v-14.194c46.307-12.36 80.519-54.662 80.519-104.811 0-33.959-15.691-64.317-40.199-84.221 3.829-10.522 6.32-21.361 7.454-32.388 8.558-.477 16.538-4.032 22.646-10.141l4.665-4.666 4.665 4.666c6.579 6.579 15.325 10.202 24.629 10.202 2.525 0 5.032-.332 7.451-.988 3.987-1.077 6.34-5.182 5.26-9.165zm-330.469-147.791 10.609-15.639 6.75 13.933c-6.997 1.42-13.586 3.112-19.804 5.08.849-1.115 1.673-2.237 2.445-3.374zm-110.58 190.343v-72.503c0-5.125 4.169-9.294 9.294-9.294h5.866v91.091h-5.866c-5.125 0-9.294-4.169-9.294-9.294zm142.617 132.501c-5.813 0-11.255 1.94-15.622 5.461-.178-5.31-.588-10.594-1.211-15.847h33.669c-.626 5.261-1.033 10.549-1.212 15.848-4.368-3.522-9.81-5.462-15.624-5.462zm172.315 84.942 4.182 4.181c1.551 1.551 2.405 3.614 2.405 5.807 0 2.194-.854 4.256-2.405 5.807l-4.182 4.182c-3.816 3.816-5.917 8.889-5.917 14.285v8.493c0 3.561-1.412 6.885-3.975 9.358-2.561 2.472-5.952 3.75-9.51 3.637-6.905-.246-12.523-6.295-12.523-13.486v-8.002c0-5.396-2.102-10.47-5.917-14.285l-4.181-4.181c-1.551-1.551-2.405-3.614-2.405-5.808s.854-4.256 2.405-5.807l4.181-4.181c3.816-3.816 5.917-8.889 5.917-14.285v-11.319c4.265.512 8.603.782 13.004.782s8.739-.27 13.004-.782v11.319c0 5.396 2.102 10.469 5.917 14.285zm74.602-133.29c0 51.569-41.954 93.523-93.523 93.523s-93.522-41.954-93.522-93.523c0-51.568 41.954-93.522 93.522-93.522s93.523 41.953 93.523 93.522zm-93.523-108.468c-59.81 0-108.468 48.658-108.468 108.467 0 1.974.056 3.934.161 5.882-14.107-.914-27.938-3.433-41.208-7.544-3.941-1.222-8.128.984-9.35 4.926-1.221 3.942.984 8.128 4.926 9.35 6.846 2.121 13.829 3.848 20.912 5.191-.401 1.732-.778 3.47-1.129 5.212h-38.465c-1.702-8.427-3.986-16.745-6.849-24.916.916-.641 1.71-1.486 2.281-2.535 1.973-3.625.632-8.163-2.992-10.135-23.031-12.53-42.056-30.085-55.02-50.764-3.738-5.964-10.18-9.524-17.232-9.524h-13.473v-92.189c7.041-2.399 12.487-8.548 13.621-16.164 1.312-8.808 3.287-15.95 6.038-21.833 14.178-30.317 40.737-48.646 82.823-56.84-6.287 8.207-9.959 18.25-10.323 28.754-.143 4.125 3.085 7.584 7.21 7.727 4.116.132 7.584-3.084 7.727-7.21.345-9.97 4.925-19.354 12.565-25.745 6.533-5.465 12.016-11.436 16.296-17.746l10.609-15.639 8.244 17.016c3.461 7.144 7.937 13.745 13.302 19.618 6.573 7.196 9.805 16.505 9.1 26.212-.697 9.607-5.16 18.292-12.567 24.454-7.402 6.159-16.767 8.963-26.367 7.9-7.777-.862-14.882-4.246-20.549-9.787-2.95-2.885-7.681-2.832-10.567.119-2.885 2.951-2.832 7.682.119 10.567 7.96 7.783 18.383 12.739 29.35 13.954 1.897.211 3.787.315 5.665.315 11.658 0 22.819-4.018 31.908-11.58 10.559-8.785 16.921-21.165 17.915-34.862 1.004-13.843-3.603-27.115-12.972-37.373-.526-.576-1.04-1.161-1.545-1.754 9.73.427 19.385 1.615 28.812 3.571v70.395c0 .666-.259 1.291-.729 1.762l-64.302 64.301c-3.002 3.003-3.892 7.479-2.267 11.401 1.625 3.923 5.419 6.458 9.665 6.458h40.878c3.956 0 7.646-1.954 9.87-5.227l14-20.602h36.407c6.58 0 11.933-5.353 11.933-11.933v-42.856c0-.666.259-1.291.729-1.762l27.357-27.357c24.168 24.673 37.445 55.959 37.445 88.367 0 12.701-2.006 25.21-5.956 37.289-16.256-9.729-35.254-15.331-55.538-15.331zm103.071-64.088c4.76 0 8.632 3.872 8.632 8.632-.022 2.097-3.805 7.174-8.632 11.934-4.828-4.762-8.611-9.838-8.633-11.934 0-4.76 3.873-8.632 8.633-8.632z"/><circle cx="111.975" cy="165.647" r="9.668"/><path d="m151.82 170.107c-18.474 0-33.503 15.03-33.503 33.504s15.03 33.503 33.503 33.503 33.503-15.03 33.503-33.503c0-18.475-15.029-33.504-33.503-33.504zm0 52.061c-10.233 0-18.558-8.325-18.558-18.558s8.325-18.558 18.558-18.558 18.558 8.325 18.558 18.558-8.325 18.558-18.558 18.558z"/><path d="m338.828 229.427c-43.328 0-78.577 35.249-78.577 78.576 0 43.328 35.249 78.577 78.577 78.577 22.073 0 43.27-9.398 58.158-25.785 2.775-3.055 2.548-7.781-.506-10.556-3.055-2.775-7.781-2.548-10.556.506-12.061 13.276-29.227 20.89-47.096 20.89-35.086 0-63.632-28.545-63.632-63.632 0-35.086 28.545-63.631 63.632-63.631s63.632 28.545 63.632 63.631c0 5.25-.643 10.469-1.911 15.513-1.007 4.002 1.422 8.063 5.425 9.069 4.004 1.007 8.064-1.422 9.069-5.425 1.568-6.235 2.363-12.681 2.363-19.158 0-43.326-35.25-78.575-78.578-78.575z"/><path d="m338.828 345.012c-4.173 0-7.556 3.383-7.556 7.556s3.383 7.556 7.556 7.556 7.556-3.383 7.556-7.556-3.383-7.556-7.556-7.556z"/><path d="m367.114 281.317c-.765-14.743-12.935-26.524-27.705-26.822-14.348-.301-26.653 10.191-28.633 24.38-.181 1.298-.272 2.623-.272 3.939 0 4.127 3.346 7.473 7.473 7.473s7.473-3.346 7.473-7.473c0-.629.044-1.261.129-1.875.934-6.693 6.791-11.628 13.53-11.501 6.974.141 12.719 5.699 13.081 12.654.193 3.715-1.107 7.242-3.659 9.93-2.554 2.69-6 4.171-9.702 4.171-4.127 0-7.473 3.346-7.473 7.473v21.804c0 4.127 3.346 7.473 7.473 7.473s7.473-3.346 7.473-7.473v-15.344c4.943-1.36 9.492-4.047 13.068-7.813 5.401-5.691 8.151-13.147 7.744-20.996z"/></g></g></svg>